<?xml version="1.0" encoding="utf-8"?>
<!-- Generator: Adobe Illustrator 26.3.1, SVG Export Plug-In . SVG Version: 6.00 Build 0)  -->
<svg version="1.1" id="Calque_1" xmlns="http://www.w3.org/2000/svg" xmlns:xlink="http://www.w3.org/1999/xlink" x="0px" y="0px"
	 viewBox="0 0 600 300" style="enable-background:new 0 0 600 300;" xml:space="preserve">
<style type="text/css">
	.st0{fill:#1D1D1B;}
	.st1{fill:#114491;}
</style>
<path class="st0" d="M154.6,108.1c-2.2,0-3.9,0.7-5.1,2.4c-1.2,1.5-1.9,3.6-1.9,6.5c0,2.9,0.5,5.1,1.9,6.5c1.2,1.5,3.2,2.2,5.3,2.2
	c1,0,1.9,0,2.9-0.2s1.9-0.5,2.9-0.7v3.4c-1.9,0.7-3.9,1-6.3,1c-3.4,0-6.1-1-8-3.2c-1.9-1.9-2.7-5.1-2.7-9c0-2.4,0.5-4.6,1.5-6.5
	c1-1.9,2.2-3.2,3.9-4.1c1.7-1,3.6-1.5,6.1-1.5s4.6,0.5,6.5,1.5l-1.5,3.2c-0.7-0.5-1.7-0.7-2.4-1
	C156.5,108.4,155.6,108.1,154.6,108.1"/>
<path class="st0" d="M212.1,117.1c0,3.9-1,6.8-2.9,9c-1.9,2.2-4.6,3.2-8,3.2c-3.6,0-6.3-1-8.2-3.2c-1.9-2.2-2.9-5.1-2.9-9.2
	c0-3.9,1-7,2.9-9c1.9-1.9,4.6-3.2,8.2-3.2s6.3,1,8,3.2C211.1,110.1,212.1,113.2,212.1,117.1 M194.1,117.1c0,2.9,0.5,5.1,1.7,6.5
	c1.2,1.5,2.9,2.2,5.1,2.2c2.2,0,4.1-0.7,5.1-2.2s1.7-3.6,1.7-6.5c0-2.9-0.5-5.1-1.7-6.5c-1.2-1.5-2.9-2.2-5.1-2.2
	c-2.2,0-4.1,0.7-5.3,2.2C194.6,111.8,194.1,114.2,194.1,117.1"/>
<path class="st0" d="M250.9,128.7l-6.8-19.6l0,0c0.2,2.9,0.2,5.6,0.2,8.2V129h-3.6v-23.8h5.6l6.5,18.9l0,0l6.8-18.9h5.6V129h-3.6
	v-11.6c0-1.2,0-2.7,0-4.6s0-3.2,0.2-3.4l0,0l-7,19.6h-3.9V128.7z"/>
<path class="st0" d="M303.8,128.7l-6.8-19.6l0,0c0.2,2.9,0.2,5.6,0.2,8.2V129h-3.6v-23.8h5.6l6.5,18.9l0,0l6.8-18.9h5.6V129h-3.6
	v-11.6c0-1.2,0-2.7,0-4.6c0-1.9,0-3.2,0-3.4l0,0l-7,19.6h-3.6V128.7z"/>
<path class="st0" d="M365.1,105.2v15.3c0,1.7-0.5,3.4-1,4.6c-0.7,1.2-1.9,2.4-3.2,3.2c-1.5,0.7-3.2,1-5.1,1c-2.9,0-5.1-0.7-6.8-2.4
	c-1.7-1.5-2.4-3.6-2.4-6.5v-15h3.9v15c0,1.9,0.5,3.4,1.5,4.4c1,1,2.2,1.5,4.1,1.5c3.6,0,5.6-1.9,5.6-5.8v-15L365.1,105.2
	L365.1,105.2L365.1,105.2z"/>
<path class="st0" d="M413.2,128.7h-4.6l-11.6-18.9l0,0v1c0.2,1.9,0.2,3.9,0.2,5.6v12.4h-3.6v-23.5h4.6l11.6,18.7l0,0
	c0-0.2,0-1.2,0-2.7c0-1.5,0-2.7,0-3.6v-12.4h3.6L413.2,128.7L413.2,128.7z"/>
<polygon class="st0" points="455.4,128.5 442,128.5 442,104.7 455.4,104.7 455.4,108.1 445.9,108.1 445.9,114.7 454.9,114.7 
	454.9,117.8 445.9,117.8 445.9,125.3 455.4,125.3 "/>
<path class="st0" d="M528.2,116.4c0,3.9-1,7-3.2,9c-2.2,1.9-5.3,3.2-9.2,3.2h-6.5v-23.8h7.3c3.6,0,6.5,1,8.7,3.2
	C527.2,109.8,528.2,112.7,528.2,116.4 M524,116.6c0-5.6-2.7-8.5-8-8.5h-3.4v17.2h2.7C521.1,125.3,524,122.2,524,116.6"/>
<polygon class="st0" points="570.1,128.5 556.8,128.5 556.8,104.7 570.1,104.7 570.1,108.1 560.4,108.1 560.4,114.7 569.4,114.7 
	569.4,117.8 560.4,117.8 560.4,125.3 570.1,125.3 "/>
<path class="st0" d="M181.3,160.8c0,6.1-1.9,10.7-5.8,13.8c-3.9,3.2-9.5,4.9-16.7,4.9h-6.1V201h-9.5v-57.7h16.5
	c7,0,12.6,1.5,16.3,4.4C179.6,150.6,181.3,154.9,181.3,160.8 M152.6,171.4h5.1c4.9,0,8.2-1,10.7-2.4c2.2-1.7,3.4-4.4,3.4-8
	c0-3.4-1-5.8-3.2-7.5c-1.9-1.7-5.1-2.4-9.5-2.4h-6.5V171.4z"/>
<path class="st0" d="M205.3,178v23h-9.5v-57.7h16.3c7.5,0,12.9,1.5,16.5,4.1c3.6,2.9,5.3,7,5.3,12.6c0,7-3.6,12.4-11.2,15.3
	l16.3,25.5h-10.4l-13.8-23h-9.5V178z M205.3,170h6.5c4.4,0,7.5-0.7,9.5-2.4c1.9-1.7,2.9-4.1,2.9-7.3c0-3.2-1-5.6-3.2-7
	c-2.2-1.5-5.3-2.2-9.7-2.2H205L205.3,170L205.3,170L205.3,170z"/>
<path class="st0" d="M297,201l-5.8-16h-22.1l-5.6,16h-9.9l21.6-58h10.2l21.6,58H297z M288.7,176.8l-5.3-15.8c-0.5-1-1-2.7-1.7-5.1
	c-0.7-2.2-1.2-3.9-1.5-5.1c-0.7,3.2-1.7,6.8-3.2,10.7l-5.1,15L288.7,176.8L288.7,176.8z"/>
<path class="st0" d="M369.5,201h-11.6l-28.4-46.1h-0.2l0.2,2.4c0.5,4.9,0.5,9.5,0.5,13.3v30.1h-8.5v-57.5h11.4l28.1,45.8h0.2
	c0-0.5-0.2-2.9-0.2-6.5c-0.2-3.9-0.2-6.8-0.2-9v-30.3h8.5V201H369.5z"/>
<path class="st0" d="M410.5,168.8h21.1v28.9c-3.4,1.2-6.8,1.9-9.9,2.4c-3.2,0.5-6.5,0.7-10.2,0.7c-8.7,0-15.5-2.4-20.1-7.8
	c-4.6-5.1-7-12.6-7-21.8s2.7-16.5,8-21.8c5.3-5.3,12.6-7.8,22.1-7.8c6.1,0,11.6,1.2,17,3.4l-3.4,7.8c-4.6-2.2-9.2-3.2-14.1-3.2
	c-6.1,0-10.9,1.9-14.6,5.8c-3.6,3.9-5.3,9.2-5.3,15.8c0,7,1.5,12.4,4.9,16.3c3.2,3.6,7.8,5.6,13.8,5.6c3.2,0,6.3-0.5,9.7-1.2V177
	h-11.9V168.8z"/>
<rect x="446.4" y="143.3" class="st0" width="9.5" height="57.7"/>
<path class="st0" d="M518.5,201h-11.6l-28.4-46.1h-0.2l0.2,2.4c0.5,4.9,0.5,9.5,0.5,13.3v30.1h-8.5v-57.5h11.4l28.1,45.8h0.2
	c0-0.5-0.2-2.9-0.2-6.5c-0.2-3.9-0.2-6.8-0.2-9v-30.3h8.5L518.5,201L518.5,201z"/>
<path class="st0" d="M570.1,184.8c0,5.1-1.9,9.2-5.8,11.9c-3.6,2.9-9,4.1-15.3,4.1c-6.5,0-11.9-1.2-16-3.4l0.2-9
	c2.7,1.2,5.3,2.4,8.2,3.2c2.9,0.7,5.6,1.2,8.2,1.2c3.6,0,6.5-0.5,8.2-1.9c1.7-1.5,2.7-3.4,2.7-5.6c0-2.2-0.7-4.1-2.4-5.6
	c-1.5-1.5-4.9-3.4-9.9-5.6c-5.1-2.2-8.7-4.6-10.9-7.5c-1.9-2.7-3.2-6.1-3.2-9.9c0-4.9,1.9-8.5,5.3-11.2c3.4-2.7,8-4.1,13.8-3.9
	c5.6,0,10.9,1.5,16.3,3.9l-3.2,7.5c-5.1-2.2-9.7-3.4-13.6-3.6c-3.2,0-5.3,0.5-7,1.9c-1.5,1.2-2.4,3.2-2.4,5.1c0,1.5,0.2,2.9,1,3.9
	c0.5,1,1.7,2.2,3.2,3.2c1.5,1,4.1,2.2,7.8,3.9c4.1,1.9,7.3,3.6,9.2,5.1c1.9,1.5,3.4,3.4,4.1,5.3
	C569.6,179.9,570.1,182.1,570.1,184.8"/>
<polygon class="st1" points="73.6,122.4 73.6,123.6 73.6,126.6 74.8,126.6 75.7,126.6 75.7,123.6 75.7,122.4 74.8,121.7 "/>
<polygon class="st1" points="83.7,126.6 83.7,123.6 83.7,122.4 82.5,121.7 81.3,122.4 81.3,123.6 81.3,126.6 82.5,126.6 "/>
<path class="st1" d="M79.4,155.2l4.1-1l3.6-0.7l6.8-0.2l7,2.7l7,3.2h19.9v-56.8H29.2v56.5l27.7,1l9.7-3.9l11.6-1l-6.5,3.6l-1.9,0.7
	v1.5l5.6,2.2l2.4-1l0.5,4.1l3.2,3.9l0.5,3.4l-4.6,2.9l-1.9,3.6l-3.9-0.2l-9.5-2.4l-7.5-3.6l-25.7,3.2v24h40.5v-2.9v-5.6l-0.5-3.4
	l-5.1-7.8l-1-2.7l9,1.9l3.2,1l1.5,5.1l0.5-0.2l-0.5-5.6l1.9-3.6l2.2-1.5l1.5-1l2.4,1.2l-0.5-1l-0.7-0.5l-0.5-3.4l-0.7-1.9l-2.4-2.9
	l-0.2-3.2v-1.2l1.5-0.5l1.7,1l3.2,2.7l3.6,7l1.9,5.6l-2.4,10.4l-0.7,8.7v3.9h40.5v-24.3l-17.5-3.2l-11.2-3.9l-1-0.5l-7.3-3.2
	l-3.2-4.1l2.7-1.9h-0.5l-3.4,1l-5.3-0.5l-1,0.2l-4.6,1.7l-3.4-1.2l-1.5-0.5v-1.2l1.7-0.5L79.4,155.2z M78.7,110.5l9.9,6.8h-1v27.9
	h-6.1v-7.8v-2.7l-3.2-2.2l-3.2,2.2v2.7v7.8h-6.1v-27.9h-1L78.7,110.5z M68.7,155.2L68,154l0.2-0.7H69l1.9,1.9H68.7z M72.3,154.7
	l-0.7-1.7l0.2-1.5h1.9l2.4,2.9L72.3,154.7z M77.4,154.5L77,153l0.5-1h1l1.9,2.4H77.4z M92,176.8l-1.7-3.6h2.2l4.9,2.2l0.2,1
	L92,176.8z M86.9,161.7l3.9,4.6l9.2,4.1l7.3,2.7l3.4,1v0.7l-4.1,0.5l-5.3-0.2l-3.2-0.5l-5.1-2.2h-2.4l-4.4-7.5l-2.9-2.7l-1.5-1.2
	L86.9,161.7z"/>
</svg>
